<!--?xml version="1.0" encoding="UTF-8"?-->
<svg width="100%" height="100%" viewBox="0 0 117 34" version="1.1" xmlns="http://www.w3.org/2000/svg" xmlns:xlink="http://www.w3.org/1999/xlink">
    <title>oktica-right-logo-neon</title>
    <style>/***************************************************
 * Generated by SVG Artista on 4/18/2024, 8:41:37 PM
 * MIT license (https://opensource.org/licenses/MIT)
 * W. https://svgartista.net
 **************************************************/

@-webkit-keyframes animate-svg-stroke-1{0%{stroke-dashoffset:29.05967903137207px;stroke-dasharray:29.05967903137207px}100%{stroke-dashoffset:0;stroke-dasharray:29.05967903137207px}}@keyframes animate-svg-stroke-1{0%{stroke-dashoffset:29.05967903137207px;stroke-dasharray:29.05967903137207px}100%{stroke-dashoffset:0;stroke-dasharray:29.05967903137207px}}@-webkit-keyframes animate-svg-fill-1{0%{fill:transparent}100%{fill:rgb(255,255,255)}}@keyframes animate-svg-fill-1{0%{fill:transparent}100%{fill:rgb(255,255,255)}}.svg-elem-1{-webkit-animation:animate-svg-stroke-1 1s cubic-bezier(0.47,0,0.745,0.715) 0s both,animate-svg-fill-1 0.7s cubic-bezier(0.47,0,0.745,0.715) 0.8s both;animation:animate-svg-stroke-1 1s cubic-bezier(0.47,0,0.745,0.715) 0s both,animate-svg-fill-1 0.7s cubic-bezier(0.47,0,0.745,0.715) 0.8s both}@-webkit-keyframes animate-svg-stroke-2{0%{stroke-dashoffset:29.059677124023438px;stroke-dasharray:29.059677124023438px}100%{stroke-dashoffset:0;stroke-dasharray:29.059677124023438px}}@keyframes animate-svg-stroke-2{0%{stroke-dashoffset:29.059677124023438px;stroke-dasharray:29.059677124023438px}100%{stroke-dashoffset:0;stroke-dasharray:29.059677124023438px}}@-webkit-keyframes animate-svg-fill-2{0%{fill:transparent}100%{fill:rgb(255,255,255)}}@keyframes animate-svg-fill-2{0%{fill:transparent}100%{fill:rgb(255,255,255)}}.svg-elem-2{-webkit-animation:animate-svg-stroke-2 1s cubic-bezier(0.47,0,0.745,0.715) 0.12s both,animate-svg-fill-2 0.7s cubic-bezier(0.47,0,0.745,0.715) 0.9s both;animation:animate-svg-stroke-2 1s cubic-bezier(0.47,0,0.745,0.715) 0.12s both,animate-svg-fill-2 0.7s cubic-bezier(0.47,0,0.745,0.715) 0.9s both}@-webkit-keyframes animate-svg-stroke-3{0%{stroke-dashoffset:29.05968475341797px;stroke-dasharray:29.05968475341797px}100%{stroke-dashoffset:0;stroke-dasharray:29.05968475341797px}}@keyframes animate-svg-stroke-3{0%{stroke-dashoffset:29.05968475341797px;stroke-dasharray:29.05968475341797px}100%{stroke-dashoffset:0;stroke-dasharray:29.05968475341797px}}@-webkit-keyframes animate-svg-fill-3{0%{fill:transparent}100%{fill:rgb(255,255,255)}}@keyframes animate-svg-fill-3{0%{fill:transparent}100%{fill:rgb(255,255,255)}}.svg-elem-3{-webkit-animation:animate-svg-stroke-3 1s cubic-bezier(0.47,0,0.745,0.715) 0.24s both,animate-svg-fill-3 0.7s cubic-bezier(0.47,0,0.745,0.715) 1s both;animation:animate-svg-stroke-3 1s cubic-bezier(0.47,0,0.745,0.715) 0.24s both,animate-svg-fill-3 0.7s cubic-bezier(0.47,0,0.745,0.715) 1s both}@-webkit-keyframes animate-svg-stroke-4{0%{stroke-dashoffset:57.268714904785156px;stroke-dasharray:57.268714904785156px}100%{stroke-dashoffset:0;stroke-dasharray:57.268714904785156px}}@keyframes animate-svg-stroke-4{0%{stroke-dashoffset:57.268714904785156px;stroke-dasharray:57.268714904785156px}100%{stroke-dashoffset:0;stroke-dasharray:57.268714904785156px}}@-webkit-keyframes animate-svg-fill-4{0%{fill:transparent}100%{fill:rgb(255,255,255)}}@keyframes animate-svg-fill-4{0%{fill:transparent}100%{fill:rgb(255,255,255)}}.svg-elem-4{-webkit-animation:animate-svg-stroke-4 1s cubic-bezier(0.47,0,0.745,0.715) 0.36s both,animate-svg-fill-4 0.7s cubic-bezier(0.47,0,0.745,0.715) 1.1s both;animation:animate-svg-stroke-4 1s cubic-bezier(0.47,0,0.745,0.715) 0.36s both,animate-svg-fill-4 0.7s cubic-bezier(0.47,0,0.745,0.715) 1.1s both}@-webkit-keyframes animate-svg-stroke-5{0%{stroke-dashoffset:61.63524627685547px;stroke-dasharray:61.63524627685547px}100%{stroke-dashoffset:0;stroke-dasharray:61.63524627685547px}}@keyframes animate-svg-stroke-5{0%{stroke-dashoffset:61.63524627685547px;stroke-dasharray:61.63524627685547px}100%{stroke-dashoffset:0;stroke-dasharray:61.63524627685547px}}@-webkit-keyframes animate-svg-fill-5{0%{fill:transparent}100%{fill:rgb(255,255,255)}}@keyframes animate-svg-fill-5{0%{fill:transparent}100%{fill:rgb(255,255,255)}}.svg-elem-5{-webkit-animation:animate-svg-stroke-5 1s cubic-bezier(0.47,0,0.745,0.715) 0.48s both,animate-svg-fill-5 0.7s cubic-bezier(0.47,0,0.745,0.715) 1.2000000000000002s both;animation:animate-svg-stroke-5 1s cubic-bezier(0.47,0,0.745,0.715) 0.48s both,animate-svg-fill-5 0.7s cubic-bezier(0.47,0,0.745,0.715) 1.2000000000000002s both}@-webkit-keyframes animate-svg-stroke-6{0%{stroke-dashoffset:50.22509765625px;stroke-dasharray:50.22509765625px}100%{stroke-dashoffset:0;stroke-dasharray:50.22509765625px}}@keyframes animate-svg-stroke-6{0%{stroke-dashoffset:50.22509765625px;stroke-dasharray:50.22509765625px}100%{stroke-dashoffset:0;stroke-dasharray:50.22509765625px}}@-webkit-keyframes animate-svg-fill-6{0%{fill:transparent}100%{fill:rgb(255,255,255)}}@keyframes animate-svg-fill-6{0%{fill:transparent}100%{fill:rgb(255,255,255)}}.svg-elem-6{-webkit-animation:animate-svg-stroke-6 1s cubic-bezier(0.47,0,0.745,0.715) 0.6s both,animate-svg-fill-6 0.7s cubic-bezier(0.47,0,0.745,0.715) 1.3s both;animation:animate-svg-stroke-6 1s cubic-bezier(0.47,0,0.745,0.715) 0.6s both,animate-svg-fill-6 0.7s cubic-bezier(0.47,0,0.745,0.715) 1.3s both}@-webkit-keyframes animate-svg-stroke-7{0%{stroke-dashoffset:50.259037017822266px;stroke-dasharray:50.259037017822266px}100%{stroke-dashoffset:0;stroke-dasharray:50.259037017822266px}}@keyframes animate-svg-stroke-7{0%{stroke-dashoffset:50.259037017822266px;stroke-dasharray:50.259037017822266px}100%{stroke-dashoffset:0;stroke-dasharray:50.259037017822266px}}@-webkit-keyframes animate-svg-fill-7{0%{fill:transparent}100%{fill:rgb(255,255,255)}}@keyframes animate-svg-fill-7{0%{fill:transparent}100%{fill:rgb(255,255,255)}}.svg-elem-7{-webkit-animation:animate-svg-stroke-7 1s cubic-bezier(0.47,0,0.745,0.715) 0.72s both,animate-svg-fill-7 0.7s cubic-bezier(0.47,0,0.745,0.715) 1.4000000000000001s both;animation:animate-svg-stroke-7 1s cubic-bezier(0.47,0,0.745,0.715) 0.72s both,animate-svg-fill-7 0.7s cubic-bezier(0.47,0,0.745,0.715) 1.4000000000000001s both}@-webkit-keyframes animate-svg-stroke-8{0%{stroke-dashoffset:50.259029388427734px;stroke-dasharray:50.259029388427734px}100%{stroke-dashoffset:0;stroke-dasharray:50.259029388427734px}}@keyframes animate-svg-stroke-8{0%{stroke-dashoffset:50.259029388427734px;stroke-dasharray:50.259029388427734px}100%{stroke-dashoffset:0;stroke-dasharray:50.259029388427734px}}@-webkit-keyframes animate-svg-fill-8{0%{fill:transparent}100%{fill:rgb(255,255,255)}}@keyframes animate-svg-fill-8{0%{fill:transparent}100%{fill:rgb(255,255,255)}}.svg-elem-8{-webkit-animation:animate-svg-stroke-8 1s cubic-bezier(0.47,0,0.745,0.715) 0.84s both,animate-svg-fill-8 0.7s cubic-bezier(0.47,0,0.745,0.715) 1.5s both;animation:animate-svg-stroke-8 1s cubic-bezier(0.47,0,0.745,0.715) 0.84s both,animate-svg-fill-8 0.7s cubic-bezier(0.47,0,0.745,0.715) 1.5s both}@-webkit-keyframes animate-svg-stroke-9{0%{stroke-dashoffset:60.70547103881836px;stroke-dasharray:60.70547103881836px}100%{stroke-dashoffset:0;stroke-dasharray:60.70547103881836px}}@keyframes animate-svg-stroke-9{0%{stroke-dashoffset:60.70547103881836px;stroke-dasharray:60.70547103881836px}100%{stroke-dashoffset:0;stroke-dasharray:60.70547103881836px}}@-webkit-keyframes animate-svg-fill-9{0%{fill:transparent}100%{fill:rgb(255,255,255)}}@keyframes animate-svg-fill-9{0%{fill:transparent}100%{fill:rgb(255,255,255)}}.svg-elem-9{-webkit-animation:animate-svg-stroke-9 1s cubic-bezier(0.47,0,0.745,0.715) 0.96s both,animate-svg-fill-9 0.7s cubic-bezier(0.47,0,0.745,0.715) 1.6s both;animation:animate-svg-stroke-9 1s cubic-bezier(0.47,0,0.745,0.715) 0.96s both,animate-svg-fill-9 0.7s cubic-bezier(0.47,0,0.745,0.715) 1.6s both}@-webkit-keyframes animate-svg-stroke-10{0%{stroke-dashoffset:60.70547103881836px;stroke-dasharray:60.70547103881836px}100%{stroke-dashoffset:0;stroke-dasharray:60.70547103881836px}}@keyframes animate-svg-stroke-10{0%{stroke-dashoffset:60.70547103881836px;stroke-dasharray:60.70547103881836px}100%{stroke-dashoffset:0;stroke-dasharray:60.70547103881836px}}@-webkit-keyframes animate-svg-fill-10{0%{fill:transparent}100%{fill:rgb(255,255,255)}}@keyframes animate-svg-fill-10{0%{fill:transparent}100%{fill:rgb(255,255,255)}}.svg-elem-10{-webkit-animation:animate-svg-stroke-10 1s cubic-bezier(0.47,0,0.745,0.715) 1.08s both,animate-svg-fill-10 0.7s cubic-bezier(0.47,0,0.745,0.715) 1.7000000000000002s both;animation:animate-svg-stroke-10 1s cubic-bezier(0.47,0,0.745,0.715) 1.08s both,animate-svg-fill-10 0.7s cubic-bezier(0.47,0,0.745,0.715) 1.7000000000000002s both}@-webkit-keyframes animate-svg-stroke-11{0%{stroke-dashoffset:56.68525695800781px;stroke-dasharray:56.68525695800781px}100%{stroke-dashoffset:0;stroke-dasharray:56.68525695800781px}}@keyframes animate-svg-stroke-11{0%{stroke-dashoffset:56.68525695800781px;stroke-dasharray:56.68525695800781px}100%{stroke-dashoffset:0;stroke-dasharray:56.68525695800781px}}@-webkit-keyframes animate-svg-fill-11{0%{fill:transparent}100%{fill:rgb(222,62,58)}}@keyframes animate-svg-fill-11{0%{fill:transparent}100%{fill:rgb(222,62,58)}}.svg-elem-11{-webkit-animation:animate-svg-stroke-11 1s cubic-bezier(0.47,0,0.745,0.715) 1.2s both,animate-svg-fill-11 0.7s cubic-bezier(0.47,0,0.745,0.715) 1.8s both;animation:animate-svg-stroke-11 1s cubic-bezier(0.47,0,0.745,0.715) 1.2s both,animate-svg-fill-11 0.7s cubic-bezier(0.47,0,0.745,0.715) 1.8s both}@-webkit-keyframes animate-svg-stroke-12{0%{stroke-dashoffset:45.45756530761719px;stroke-dasharray:45.45756530761719px}100%{stroke-dashoffset:0;stroke-dasharray:45.45756530761719px}}@keyframes animate-svg-stroke-12{0%{stroke-dashoffset:45.45756530761719px;stroke-dasharray:45.45756530761719px}100%{stroke-dashoffset:0;stroke-dasharray:45.45756530761719px}}@-webkit-keyframes animate-svg-fill-12{0%{fill:transparent}100%{fill:rgb(255,255,255)}}@keyframes animate-svg-fill-12{0%{fill:transparent}100%{fill:rgb(255,255,255)}}.svg-elem-12{-webkit-animation:animate-svg-stroke-12 1s cubic-bezier(0.47,0,0.745,0.715) 1.3199999999999998s both,animate-svg-fill-12 0.7s cubic-bezier(0.47,0,0.745,0.715) 1.9000000000000001s both;animation:animate-svg-stroke-12 1s cubic-bezier(0.47,0,0.745,0.715) 1.3199999999999998s both,animate-svg-fill-12 0.7s cubic-bezier(0.47,0,0.745,0.715) 1.9000000000000001s both}@-webkit-keyframes animate-svg-stroke-13{0%{stroke-dashoffset:45.457557678222656px;stroke-dasharray:45.457557678222656px}100%{stroke-dashoffset:0;stroke-dasharray:45.457557678222656px}}@keyframes animate-svg-stroke-13{0%{stroke-dashoffset:45.457557678222656px;stroke-dasharray:45.457557678222656px}100%{stroke-dashoffset:0;stroke-dasharray:45.457557678222656px}}@-webkit-keyframes animate-svg-fill-13{0%{fill:transparent}100%{fill:rgb(255,255,255)}}@keyframes animate-svg-fill-13{0%{fill:transparent}100%{fill:rgb(255,255,255)}}.svg-elem-13{-webkit-animation:animate-svg-stroke-13 1s cubic-bezier(0.47,0,0.745,0.715) 1.44s both,animate-svg-fill-13 0.7s cubic-bezier(0.47,0,0.745,0.715) 2s both;animation:animate-svg-stroke-13 1s cubic-bezier(0.47,0,0.745,0.715) 1.44s both,animate-svg-fill-13 0.7s cubic-bezier(0.47,0,0.745,0.715) 2s both}@-webkit-keyframes animate-svg-stroke-14{0%{stroke-dashoffset:56.68525695800781px;stroke-dasharray:56.68525695800781px}100%{stroke-dashoffset:0;stroke-dasharray:56.68525695800781px}}@keyframes animate-svg-stroke-14{0%{stroke-dashoffset:56.68525695800781px;stroke-dasharray:56.68525695800781px}100%{stroke-dashoffset:0;stroke-dasharray:56.68525695800781px}}@-webkit-keyframes animate-svg-fill-14{0%{fill:transparent}100%{fill:rgb(255,255,255)}}@keyframes animate-svg-fill-14{0%{fill:transparent}100%{fill:rgb(255,255,255)}}.svg-elem-14{-webkit-animation:animate-svg-stroke-14 1s cubic-bezier(0.47,0,0.745,0.715) 1.56s both,animate-svg-fill-14 0.7s cubic-bezier(0.47,0,0.745,0.715) 2.1s both;animation:animate-svg-stroke-14 1s cubic-bezier(0.47,0,0.745,0.715) 1.56s both,animate-svg-fill-14 0.7s cubic-bezier(0.47,0,0.745,0.715) 2.1s both}@-webkit-keyframes animate-svg-stroke-15{0%{stroke-dashoffset:56.685306549072266px;stroke-dasharray:56.685306549072266px}100%{stroke-dashoffset:0;stroke-dasharray:56.685306549072266px}}@keyframes animate-svg-stroke-15{0%{stroke-dashoffset:56.685306549072266px;stroke-dasharray:56.685306549072266px}100%{stroke-dashoffset:0;stroke-dasharray:56.685306549072266px}}@-webkit-keyframes animate-svg-fill-15{0%{fill:transparent}100%{fill:rgb(255,255,255)}}@keyframes animate-svg-fill-15{0%{fill:transparent}100%{fill:rgb(255,255,255)}}.svg-elem-15{-webkit-animation:animate-svg-stroke-15 1s cubic-bezier(0.47,0,0.745,0.715) 1.68s both,animate-svg-fill-15 0.7s cubic-bezier(0.47,0,0.745,0.715) 2.2s both;animation:animate-svg-stroke-15 1s cubic-bezier(0.47,0,0.745,0.715) 1.68s both,animate-svg-fill-15 0.7s cubic-bezier(0.47,0,0.745,0.715) 2.2s both}@-webkit-keyframes animate-svg-stroke-16{0%{stroke-dashoffset:60.705467224121094px;stroke-dasharray:60.705467224121094px}100%{stroke-dashoffset:0;stroke-dasharray:60.705467224121094px}}@keyframes animate-svg-stroke-16{0%{stroke-dashoffset:60.705467224121094px;stroke-dasharray:60.705467224121094px}100%{stroke-dashoffset:0;stroke-dasharray:60.705467224121094px}}@-webkit-keyframes animate-svg-fill-16{0%{fill:transparent}100%{fill:rgb(255,255,255)}}@keyframes animate-svg-fill-16{0%{fill:transparent}100%{fill:rgb(255,255,255)}}.svg-elem-16{-webkit-animation:animate-svg-stroke-16 1s cubic-bezier(0.47,0,0.745,0.715) 1.7999999999999998s both,animate-svg-fill-16 0.7s cubic-bezier(0.47,0,0.745,0.715) 2.3s both;animation:animate-svg-stroke-16 1s cubic-bezier(0.47,0,0.745,0.715) 1.7999999999999998s both,animate-svg-fill-16 0.7s cubic-bezier(0.47,0,0.745,0.715) 2.3s both}</style>
    <g id="oktica-right-logo-neon" stroke="none" stroke-width="1" fill="none" fill-rule="evenodd">
        <polygon id="Path" stroke="#444444" fill="#FFFFFF" fill-rule="nonzero" points="62.4970767 4 62.4970767 14.9656 65.0613206 14.9656 65.0613206 4" class="svg-elem-1"></polygon>
        <polygon id="Path" stroke="#444444" fill="#FFFFFF" fill-rule="nonzero" points="84.4970767 18 84.4970767 28.9656 87.0613206 28.9656 87.0613206 18" class="svg-elem-2"></polygon>
        <polygon id="Path" stroke="#444444" fill="#FFFFFF" fill-rule="nonzero" points="6.49707667 18 6.49707667 28.9656 9.06132065 28.9656 9.06132065 18" class="svg-elem-3"></polygon>
        <path d="M76.3791054,10.6284297 L76.2591585,10.8748793 C75.7291496,11.9659528 74.6023322,12.6713422 73.3872611,12.6713422 C71.887926,12.6713422 70.5758248,11.6118027 70.2676687,10.1525099 C70.2228105,9.93856441 70.1998939,9.71879735 70.1998939,9.5 C70.1998939,9.2884805 70.2208603,9.0774458 70.2623054,8.87320303 C70.5611971,7.39887116 71.8752485,6.32865855 73.3877486,6.32865855 C74.6676688,6.32865855 75.819353,7.08741292 76.3220571,8.26193021 L76.4356652,8.52778544 L78.8599561,8.52778544 L78.6980766,7.96987764 C78.3723673,6.84775528 77.6765782,5.83721468 76.7384577,5.12503315 C75.7686439,4.38908015 74.6101331,4 73.3877486,4 C72.0473675,4 70.7542824,4.48368186 69.7469241,5.36129509 C68.7493176,6.23066088 68.0988745,7.42555366 67.9150537,8.72620639 C67.8784846,8.97799262 67.8599561,9.23899637 67.8599561,9.5 C67.8599561,9.77070659 67.8799471,10.0418982 67.919442,10.3062979 C68.1100892,11.5987032 68.7634581,12.785834 69.759114,13.648893 C70.764522,14.5201993 72.0532186,15 73.3882365,15 C74.5794155,15 75.7135469,14.62887 76.6692205,13.9268764 C77.6053909,13.238952 78.2889903,12.2958452 78.6463927,11.1999204 L78.8326517,10.6284287 L76.3791054,10.6284297 Z" id="Path" stroke="#444444" fill="#FFFFFF" fill-rule="nonzero" class="svg-elem-4"></path>
        <path d="M40.4005501,4 L38.2350791,4 L38.2350791,9.46811331 L40.4005501,7.02900979 L40.4005501,4 Z M47.3070498,14.2877305 L42.9025717,9.98235883 L48,4 L44.818111,4 L38.2350786,11.5550854 L38.2350786,14.9656 L40.4005497,14.9656 L40.4005497,12.4283325 L41.3709515,11.4796688 L44.818111,14.8491669 L44.9367606,14.9656 L48,14.9656 L47.3070498,14.2877305 Z" id="Shape" stroke="#444444" fill="#FFFFFF" fill-rule="nonzero" class="svg-elem-5"></path>
        <path d="M51.0967869,18.1494115 L51.0117376,18 L48,18 L48.3261883,18.5733122 L52.0313259,25.0851253 L53.5441987,22.4516858 L51.0967869,18.1494115 Z M57.9882627,18 L57.9032137,18.1494118 L55.2791997,22.7621893 L54.7824129,23.6348112 L54.4997501,24.1317141 L54.498249,24.1292808 L52.9853762,26.7622335 L54.1960746,29 L54.8429477,29 L60.673812,18.5733122 L61,18 L57.9882627,18 Z" id="Shape" stroke="#444444" fill="#FFFFFF" fill-rule="nonzero" stroke-dasharray="174" class="svg-elem-6"></path>
        <path d="M80.3672402,14.3519706 L80,14.9999995 L82.9920872,14.9999995 L83.1198013,14.7749355 L85.551338,10.4861096 L84.0505735,7.85664492 L80.3672402,14.3519706 Z M92.6327604,14.3519706 L87.8760323,5.96348879 L86.8990444,4.24107063 L86.7882265,4 L86.2152526,4 L86.1004589,4.2420408 L85.1239682,5.96348879 L85.0042054,6.17497135 L84.9992358,6.18370242 L86.5000003,8.81316706 L86.543731,8.89029017 L87.6409786,10.824676 L89.8801987,14.774936 L90.0079128,15 L93,15 L92.6327604,14.3519706 Z" id="Shape" stroke="#444444" fill="#FFFFFF" fill-rule="nonzero" stroke-dasharray="212" class="svg-elem-7"></path>
        <path d="M58.3672402,28.3519706 L58,28.9999995 L60.9920872,28.9999995 L61.1198013,28.7749355 L63.551338,24.4861096 L62.0505735,21.8566449 L58.3672402,28.3519706 Z M70.6327604,28.3519706 L65.8760323,19.9634888 L64.8990444,18.2410706 L64.7882265,18 L64.2152526,18 L64.1004589,18.2420408 L63.1239682,19.9634888 L63.0042054,20.1749713 L62.9992358,20.1837024 L64.5000003,22.8131671 L64.543731,22.8902902 L65.6409786,24.824676 L67.8801987,28.774936 L68.0079128,29 L71,29 L70.6327604,28.3519706 Z" id="Shape" stroke="#444444" fill="#FFFFFF" fill-rule="nonzero" stroke-dasharray="212" class="svg-elem-8"></path>
        <path d="M12.0000003,28.9855014 L14.359109,28.9855014 L14.359109,25.312069 L12.0000003,22.9927947 L12.0000003,28.9855014 Z M18.6408915,18.0594439 L18.6408915,23.9540442 L12.5858455,18 L12.0004915,18 L12.0004915,18.2807873 L12,19.3232283 L12,20.7059003 L14.3591088,23.0251746 L15.9741155,24.6132419 L18.7701507,27.3621546 L20.4357797,29 L21,29 L21,18.0594439 L18.6408915,18.0594439 Z" id="Shape" stroke="#444444" fill="#FFFFFF" fill-rule="nonzero" stroke-dasharray="212" class="svg-elem-9"></path>
        <path d="M24.0000003,28.9855014 L26.359109,28.9855014 L26.359109,25.312069 L24.0000003,22.9927947 L24.0000003,28.9855014 Z M30.6408915,18.0594439 L30.6408915,23.9540442 L24.5858454,18 L24.0004915,18 L24.0004915,18.2807873 L24,19.3232283 L24,20.7059003 L26.3591087,23.0251746 L27.9741154,24.6132419 L30.7701507,27.3621546 L32.4357798,29 L33,29 L33,18.0594439 L30.6408915,18.0594439 Z" id="Shape" stroke="#444444" fill="#FFFFFF" fill-rule="nonzero" stroke-dasharray="197" class="svg-elem-10"></path>
        <path d="M41.5000245,18 C38.4673035,18 36,20.4673034 36,23.4999757 C36,26.5326476 38.4673035,29 41.5000245,29 C44.5326965,29 47,26.5326966 47,23.4999757 C47,20.4672547 44.5326965,18 41.5000242,18 L41.5000245,18 Z M44.7042852,23.4999759 C44.7042852,25.2668571 43.2668565,26.7043347 41.4999753,26.7043347 C39.733143,26.7043347 38.2956656,25.2668573 38.2956656,23.4999762 C38.2956656,21.733095 39.733143,20.2956663 41.5000242,20.2956663 C43.2668565,20.2956663 44.7042852,21.7331437 44.7042852,23.4999759 Z" id="Shape" stroke="#D0312D" fill-opacity="0.450010927" fill="#DE3E3A" fill-rule="nonzero" stroke-dasharray="257" class="svg-elem-11"></path>
        <path d="M56.100221,15 L56.100221,7.96605605 L53.7420781,7.96605605 L53.7420781,15 L56.100221,15 Z M50,4 L50,6.33669663 L53.7420781,6.33669663 L56.100221,6.33718346 L60,6.33669663 L60,4 L50,4 Z" id="Shape" stroke="#444444" fill="#FFFFFF" fill-rule="nonzero" stroke-dasharray="156" class="svg-elem-12"></path>
        <path d="M77.100221,29 L77.100221,21.966056 L74.7420781,21.966056 L74.7420781,29 L77.100221,29 Z M71,18 L71,20.3366966 L74.7420781,20.3366966 L77.100221,20.3371835 L81,20.3366966 L81,18 L71,18 Z" id="Shape" stroke="#444444" fill="#FFFFFF" fill-rule="nonzero" stroke-dasharray="156" class="svg-elem-13"></path>
        <path d="M30.5000244,4 C27.4673035,4 25,6.46730341 25,9.49997566 C25,12.5326476 27.4673035,15 30.5000244,15 C33.5326965,15 36,12.5326966 36,9.49997566 C36,6.46725473 33.5326965,4 30.5000244,4 L30.5000244,4 Z M33.7042852,9.49997591 C33.7042852,11.2668571 32.2668566,12.7043347 30.4999754,12.7043347 C28.7331431,12.7043347 27.2956657,11.2668573 27.2956657,9.49997616 C27.2956657,7.73309496 28.7331431,6.29566631 30.5000244,6.29566631 C32.2668566,6.29566631 33.7042852,7.73314366 33.7042852,9.49997591 Z" id="Shape" stroke="#444444" fill="#FFFFFF" fill-rule="nonzero" stroke-dasharray="197" class="svg-elem-14"></path>
        <path d="M94.5000244,18 C91.4673035,18 89,20.4673034 89,23.4999757 C89,26.5326476 91.4673035,29 94.5000244,29 C97.5326965,29 100,26.5326966 100,23.4999757 C100,20.4672547 97.5326965,18 94.5000244,18 L94.5000244,18 Z M97.7042852,23.4999759 C97.7042852,25.2668571 96.2668566,26.7043347 94.4999754,26.7043347 C92.7331431,26.7043347 91.2956657,25.2668573 91.2956657,23.4999762 C91.2956657,21.733095 92.7331431,20.2956663 94.5000244,20.2956663 C96.2668566,20.2956663 97.7042852,21.7331437 97.7042852,23.4999759 Z" id="Shape" stroke="#444444" fill="#FFFFFF" fill-rule="nonzero" stroke-dasharray="197" class="svg-elem-15"></path>
        <path d="M102,28.9855014 L104.359109,28.9855014 L104.359109,25.312069 L102,22.9927947 L102,28.9855014 Z M108.640892,18.0594439 L108.640892,23.9540442 L102.585846,18 L102.000491,18 L102.000491,18.2807873 L102,19.3232283 L102,20.7059003 L104.359109,23.0251746 L105.974115,24.6132419 L108.770151,27.3621546 L110.43578,29 L111,29 L111,18.0594439 L108.640892,18.0594439 Z" id="Shape" stroke="#444444" fill="#FFFFFF" fill-rule="nonzero" stroke-dasharray="212" class="svg-elem-16"></path>
    </g>
</svg>