<?xml version="1.0" encoding="UTF-8"?>
<svg width="512px" height="512px" viewBox="0 0 512 512" version="1.1" xmlns="http://www.w3.org/2000/svg" xmlns:xlink="http://www.w3.org/1999/xlink">
    <title>512x512 (Android)@1x</title>
    <g id="512x512-(Android)" stroke="none" stroke-width="1" fill="none" fill-rule="evenodd">
        <g id="github-mark" transform="translate(0, 5)" fill="#24292F">
            <path d="M256.211827,0 C114.533305,0 0,115.270351 0,257.875495 C0,371.867393 73.3854362,468.359156 175.190488,502.510618 C187.918742,505.078003 192.581048,496.961922 192.581048,490.134773 C192.581048,484.156434 192.161493,463.664509 192.161493,442.313296 C120.889565,457.68617 106.047803,411.572789 106.047803,411.572789 C94.5939479,381.686331 77.622943,374.005134 77.622943,374.005134 C54.2956779,358.207856 79.3221413,358.207856 79.3221413,358.207856 C105.198204,359.915953 118.776057,384.678121 118.776057,384.678121 C141.678522,423.953873 178.58364,412.856482 193.430647,406.024094 C195.5494,389.372768 202.340949,377.845733 209.552053,371.442988 C152.707577,365.464649 92.8999941,343.264627 92.8999941,244.210718 C92.8999941,216.032357 103.074206,192.978287 119.195612,175.048508 C116.652059,168.645764 107.741757,142.17026 121.744409,106.735106 C121.744409,106.735106 143.37772,99.9027177 192.156248,133.20537 C213.040071,127.560595 234.577219,124.689062 256.211827,124.664885 C277.845139,124.664885 299.898005,127.656675 320.262162,133.20537 C369.045934,99.9027177 390.679246,106.735106 390.679246,106.735106 C404.681898,142.17026 395.766352,168.645764 393.222799,175.048508 C409.769004,192.978287 419.523661,216.032357 419.523661,244.210718 C419.523661,343.264627 359.716077,365.035005 302.446802,371.442988 C311.781904,379.55383 319.837362,394.921463 319.837362,419.259226 C319.837362,453.840331 319.417807,481.594288 319.417807,490.129534 C319.417807,496.961922 324.085358,505.078003 336.808367,502.515857 C438.613419,468.353917 512,371.867393 512,257.875495 C512.41841,115.270351 397.46555,0 256.211827,0 Z" id="Path"></path>
        </g>
    </g>
</svg>