<?xml version="1.0" encoding="UTF-8"?>
<svg width="871px" height="553px" viewBox="0 0 871 553" version="1.1" xmlns="http://www.w3.org/2000/svg" xmlns:xlink="http://www.w3.org/1999/xlink">
    <title>setbun-logo-final@2x</title>
    <g id="setbun-logo-final" stroke="none" stroke-width="1" fill="none" fill-rule="evenodd">
        <path d="M436,65 C319.468525,65 225,159.468515 225,276 C224.959381,392.531485 319.468525,487 436,487 C552.531488,487 647,392.531485 647,276 C647,159.468515 552.490856,65 436,65 Z M458.511848,120 C498.935745,120 534.611051,140.31149 556,171.287529 C534.611051,159.035508 509.89403,151.993649 483.512973,151.993649 C415.73395,151.993649 358.710281,198.274538 342.110508,261 C340.771162,253.836028 340,246.468533 340,238.897517 C339.959437,173.241339 393.046241,120 458.511848,120 Z M559.813994,402.474861 C528.642679,433.077083 485.98506,452 438.862799,452 C343.400647,452 266,374.395694 266,278.682361 C266,232.25 284.264442,190.13125 313.893426,159 C301.433018,181.056389 294.289592,206.531111 294.289592,233.674306 C294.289592,294.390417 329.844373,346.723472 381.228337,370.977361 C374.450199,356.612222 370.553785,340.619306 370.553785,323.731111 C370.553785,262.404583 420.111305,212.716667 481.276892,212.716667 C542.44248,212.716667 592,262.445278 592,323.731111 C592,354.496111 579.539592,382.331111 559.36753,402.434167 C559.570468,402.434167 559.651643,402.474861 559.813994,402.474861 Z" id="形状" stroke="#138F2E" fill="#138F2E" fill-rule="nonzero"></path>
        <path d="M257,290.595411 L257,290.595411 C257,297.182988 255.861821,302.9446 253.585463,307.880246 C251.329073,312.815893 248.234026,316.915501 244.300319,320.179071 C240.366613,323.462787 235.763978,325.920537 230.492412,327.552322 C225.200879,329.184107 219.529952,330 213.479633,330 L213.479633,330 C211.143371,330 208.577476,329.687745 205.781949,329.063234 C202.986422,328.438724 200.160942,327.663123 197.305511,326.73643 C194.45008,325.789591 191.694489,324.772244 189.038738,323.684387 C186.382987,322.616676 184.036741,321.599328 182,320.632345 L182,320.632345 L185.144968,290.867375 C189.198482,293.325126 193.691294,295.188584 198.623403,296.45775 C203.555511,297.747062 208.407748,298.391718 213.180112,298.391718 L213.180112,298.391718 C214.098642,298.391718 215.196885,298.351427 216.47484,298.270845 C217.772764,298.210409 219.000799,297.998881 220.158946,297.636262 C221.337061,297.273643 222.335463,296.729715 223.154153,296.004477 C223.952875,295.279239 224.352236,294.241746 224.352236,292.891998 L224.352236,292.891998 C224.352236,291.98545 224.072684,291.209849 223.513578,290.565193 C222.934505,289.900392 222.185703,289.366536 221.267173,288.963626 C220.36861,288.560716 219.35024,288.248461 218.212061,288.026861 C217.053914,287.80526 215.925719,287.644096 214.827476,287.543369 C213.729233,287.462787 212.710863,287.422496 211.772364,287.422496 C210.813898,287.422496 210.045128,287.422496 209.466054,287.422496 L209.466054,287.422496 C205.372604,287.422496 201.638578,286.697258 198.263978,285.246782 C194.909345,283.796307 192.023962,281.781757 189.607827,279.203134 C187.191693,276.62451 185.314696,273.572468 183.976837,270.047006 C182.658946,266.501399 182,262.663682 182,258.533856 L182,258.533856 C182,252.852826 183.128195,247.756016 185.384585,243.243425 C187.660942,238.750979 190.696086,234.923335 194.490016,231.760492 C198.263978,228.617795 202.617013,226.200336 207.549121,224.508114 C212.461262,222.836038 217.543131,222 222.794728,222 L222.794728,222 C225.13099,222 227.537141,222.080582 230.013179,222.241746 C232.489217,222.40291 234.955272,222.705092 237.411342,223.148293 C239.867412,223.571349 242.263578,224.12535 244.59984,224.810297 C246.95607,225.475098 249.182508,226.311136 251.279153,227.318411 L251.279153,227.318411 L248.553514,256.660325 C245.298722,255.552322 241.894169,254.62563 238.339856,253.880246 C234.785543,253.134863 231.321086,252.762171 227.946486,252.762171 L227.946486,252.762171 C227.327476,252.762171 226.528754,252.772244 225.550319,252.792389 C224.571885,252.812535 223.54353,252.883044 222.465256,253.003917 C221.386981,253.12479 220.298722,253.3061 219.200479,253.547846 C218.102236,253.789591 217.123802,254.111919 216.265176,254.514829 C215.40655,254.917739 214.717652,255.461668 214.198482,256.146614 C213.679313,256.811416 213.439696,257.607163 213.479633,258.533856 L213.479633,258.533856 C213.519569,259.581421 213.908946,260.437605 214.647764,261.102406 C215.386581,261.747062 216.345048,262.250699 217.523163,262.613318 C218.701278,262.975937 219.989217,263.227756 221.386981,263.368774 C222.804712,263.509793 224.202476,263.590375 225.580272,263.61052 C226.958067,263.630666 228.246006,263.630666 229.444089,263.61052 C230.642173,263.590375 231.620607,263.630666 232.379393,263.731393 L232.379393,263.731393 C236.193291,263.973139 239.627796,264.789032 242.682907,266.179071 C245.738019,267.56911 248.323882,269.422496 250.440495,271.739228 C252.577077,274.05596 254.204473,276.815893 255.322684,280.019026 C256.440895,283.22216 257,286.747622 257,290.595411 Z M263.301009,225 L330,225 C329.71742,229.526988 329.455024,234.003676 329.212813,238.430064 C328.970601,242.836332 328.657745,247.30296 328.274243,251.829948 L328.274243,251.829948 L297.604212,253.429483 L296.877578,262.513639 L318.434401,262.513639 L316.860026,284.876959 L295.151821,285.571097 L294.425186,296.103889 L312.348837,296.103889 L325.095217,296.103889 C324.812637,301.395434 324.509873,306.64674 324.186924,311.857806 C323.88416,317.088992 323.611672,322.320178 323.36946,327.551364 L323.36946,327.551364 L261,329 L263.301009,225 Z M329.86978,226.150298 L408,226 L407.280182,256.450298 L385.925588,257.322024 L380.46697,325.406845 L350.204632,327 L350.354594,258.885119 L329,260.027381 L329.86978,226.150298 Z M496,302.562553 L496,302.562553 C496,306.571402 495.263954,310.016191 493.791862,312.896922 C492.31977,315.777652 490.353619,318.235338 487.89341,320.26998 C485.433201,322.284477 482.599928,323.926292 479.39359,325.195425 C476.187252,326.484703 472.849838,327.491951 469.381347,328.21717 C465.912856,328.922244 462.434282,329.395651 458.945625,329.637391 C455.456968,329.87913 452.190133,330 449.145121,330 L449.145121,330 C446.160605,330 443.065178,329.899275 439.85884,329.697825 C436.652503,329.476231 433.456248,329.103549 430.270076,328.57978 C427.104069,328.035866 423.978394,327.320719 420.89305,326.434341 C417.807706,325.547962 414.89377,324.429916 412.151242,323.080203 L412.151242,323.080203 L412,230.070884 C414.702197,228.962911 417.565718,227.965735 420.590565,227.079356 C423.635578,226.192978 426.731005,225.447614 429.876846,224.843265 C433.042852,224.238916 436.188693,223.775581 439.314368,223.453262 C442.440043,223.151087 445.474973,223 448.419157,223 L448.419157,223 C451.847317,223 455.305726,223.211522 458.794382,223.634567 C462.283039,224.077756 465.640619,224.802975 468.867123,225.810223 C472.113792,226.817472 475.128556,228.126894 477.911415,229.738492 C480.71444,231.350089 483.164566,233.334369 485.261793,235.69133 C487.359021,238.068436 488.992438,240.818225 490.162045,243.940695 C491.351819,247.063165 491.946705,250.669114 491.946705,254.758543 L491.946705,254.758543 C491.946705,257.457969 491.553475,259.986162 490.767015,262.343123 C490.00072,264.700085 488.901692,266.825379 487.469932,268.719006 C486.018005,270.592488 484.253511,272.183941 482.176449,273.493363 C480.099388,274.822931 477.760173,275.799962 475.158804,276.424456 L475.158804,276.424456 C478.304645,277.2504 481.158084,278.459098 483.719121,280.050551 C486.300324,281.642003 488.49838,283.565848 490.313288,285.822084 C492.128196,288.078321 493.529708,290.626659 494.517825,293.4671 C495.505942,296.30754 496,299.339358 496,302.562553 Z M459,261.588235 L459,261.588235 C459,260.235294 458.714487,259.078431 458.14346,258.117647 C457.572433,257.156863 456.873418,256.372549 456.046414,255.764706 C455.2391,255.156863 454.353024,254.705882 453.388186,254.411765 C452.423347,254.137255 451.556962,254 450.78903,254 L450.78903,254 C449.863572,254 448.947961,254.137255 448.042194,254.411765 C447.156118,254.705882 446.289733,255.039216 445.443038,255.411765 L445.443038,255.411765 L445,271 C446.082982,271 447.431786,270.911765 449.046414,270.735294 C450.64135,270.539216 452.177215,270.127451 453.654008,269.5 C455.130802,268.872549 456.390999,267.931373 457.434599,266.676471 C458.4782,265.441176 459,263.745098 459,261.588235 Z M448.440994,285 L448.440994,285 C447.012422,285 445.625259,285.146805 444.279503,285.440415 L444.279503,285.440415 L444,301.412781 C444.745342,301.569372 445.469979,301.70639 446.173913,301.823834 C446.898551,301.941278 447.602484,302 448.285714,302 L448.285714,302 C449.341615,302 450.480331,301.892343 451.701863,301.677029 C452.944099,301.461716 454.113872,301.040875 455.21118,300.414508 C456.287785,299.768566 457.188406,298.917098 457.913043,297.860104 C458.637681,296.783535 459,295.354634 459,293.573402 L459,293.573402 C459,291.79217 458.637681,290.343696 457.913043,289.227979 C457.188406,288.092689 456.308489,287.21186 455.273292,286.585492 C454.238095,285.959125 453.099379,285.538284 451.857143,285.322971 C450.614907,285.107657 449.47619,285 448.440994,285 Z M586,248.249127 L586,248.249127 C586,251.820722 585.830059,255.74544 585.490176,260.023283 C585.170286,264.321304 584.630472,268.760574 583.870734,273.341094 C583.091003,277.921614 582.091348,282.56267 580.871768,287.264261 C579.652189,291.965852 578.142709,296.485836 576.34333,300.824214 C574.523957,305.162592 572.404688,309.22856 569.985522,313.022119 C567.566356,316.795499 564.797311,320.094684 561.678387,322.919674 C558.539469,325.744664 555.040676,327.9643 551.182006,329.57858 C547.303344,331.19286 543.004826,332 538.286453,332 L538.286453,332 C532.72837,332 527.910031,331.091967 523.831437,329.275902 C519.752844,327.480016 516.25405,325.048506 513.335057,321.981374 C510.416063,318.914241 508.026887,315.342646 506.167528,311.266589 C504.30817,307.190532 502.848673,302.882421 501.789038,298.342258 C500.749397,293.781917 500.019648,289.120683 499.599793,284.358556 C499.199931,279.616608 499,275.046178 499,270.647264 L499,270.647264 C499,263.907645 499.339883,257.178114 500.019648,250.458673 C500.679421,243.719053 501.629093,236.999612 502.868666,230.300349 L502.868666,230.300349 L536.427094,231.601863 C535.127542,239.168801 534.007928,246.776096 533.068252,254.423749 C532.148569,262.071401 531.688728,269.749321 531.688728,277.457509 L531.688728,277.457509 C531.688728,278.284827 531.718718,279.505627 531.778697,281.119907 C531.858669,282.734187 531.998621,284.540163 532.198552,286.537835 C532.37849,288.535506 532.648397,290.583624 533.008273,292.682189 C533.368149,294.780753 533.85798,296.697711 534.477766,298.433062 C535.097553,300.168413 535.847294,301.590997 536.726991,302.700815 C537.62668,303.810633 538.666322,304.365541 539.845915,304.365541 L539.845915,304.365541 C541.245433,304.365541 542.495002,303.699651 543.594623,302.36787 C544.67425,301.056267 545.633919,299.290648 546.47363,297.071013 C547.31334,294.851378 548.043089,292.288708 548.662875,289.383003 C549.282661,286.497478 549.812478,283.490881 550.252327,280.363213 C550.672182,277.215367 551.012065,274.07761 551.271975,270.949942 C551.551879,267.822274 551.771803,264.90648 551.931748,262.202561 C552.091693,259.498642 552.201655,257.107489 552.261634,255.029104 C552.30162,252.970896 552.321613,251.427241 552.321613,250.398137 L552.321613,250.398137 C552.321613,246.644936 552.261634,242.901824 552.141675,239.168801 C552.021717,235.435778 551.841779,231.712844 551.601861,228 L551.601861,228 L585.16029,228 C585.720097,234.638727 586,241.388436 586,248.249127 Z M655.891265,225.867092 L690,224.720255 L684.799023,322.533372 L646.940745,325.973883 L626.711362,273.611724 L623.536347,327 L591,327 L593.630727,224.720255 L629.735186,223 L654.742211,274.90946 L655.891265,225.867092 Z" id="形状" stroke="#000000" fill="#000000" fill-rule="nonzero"></path>
    </g>
</svg>