<!--?xml version="1.0" encoding="UTF-8"?-->
<svg width="100%" height="100%" viewBox="0 0 871 553" version="1.1" xmlns="http://www.w3.org/2000/svg" xmlns:xlink="http://www.w3.org/1999/xlink">
    <title>SetBun-Logo-Candy@2x</title>
    <style>
        /***************************************************
 * Generated by SVG Artista on 9/17/2024, 11:43:50 AM
 * MIT license (https://opensource.org/licenses/MIT)
 * W. https://svgartista.net
 **************************************************/

@-webkit-keyframes animate-svg-stroke-1{0%{stroke-dashoffset:1351.056640625px;stroke-dasharray:1351.056640625px}100%{stroke-dashoffset:0;stroke-dasharray:1351.056640625px}}@keyframes animate-svg-stroke-1{0%{stroke-dashoffset:1351.056640625px;stroke-dasharray:1351.056640625px}100%{stroke-dashoffset:0;stroke-dasharray:1351.056640625px}}@-webkit-keyframes animate-svg-fill-1{0%{fill:transparent}100%{fill:rgb(53,73,94)}}@keyframes animate-svg-fill-1{0%{fill:transparent}100%{fill:rgb(53,73,94)}}.svg-elem-1{-webkit-animation:animate-svg-stroke-1 2s cubic-bezier(0.55,0.085,0.68,0.53) 0s both,animate-svg-fill-1 0.7s cubic-bezier(0.55,0.085,0.68,0.53) 0.8s both;animation:animate-svg-stroke-1 2s cubic-bezier(0.55,0.085,0.68,0.53) 0s both,animate-svg-fill-1 0.7s cubic-bezier(0.55,0.085,0.68,0.53) 0.8s both}@-webkit-keyframes animate-svg-stroke-2{0%{stroke-dashoffset:889.4096069335938px;stroke-dasharray:889.4096069335938px}100%{stroke-dashoffset:0;stroke-dasharray:889.4096069335938px}}@keyframes animate-svg-stroke-2{0%{stroke-dashoffset:889.4096069335938px;stroke-dasharray:889.4096069335938px}100%{stroke-dashoffset:0;stroke-dasharray:889.4096069335938px}}@-webkit-keyframes animate-svg-fill-2{0%{fill:transparent}100%{fill:rgb(65,184,131)}}@keyframes animate-svg-fill-2{0%{fill:transparent}100%{fill:rgb(65,184,131)}}.svg-elem-2{-webkit-animation:animate-svg-stroke-2 2s cubic-bezier(0.55,0.085,0.68,0.53) 0.2s both,animate-svg-fill-2 0.7s cubic-bezier(0.55,0.085,0.68,0.53) 0.9s both;animation:animate-svg-stroke-2 2s cubic-bezier(0.55,0.085,0.68,0.53) 0.2s both,animate-svg-fill-2 0.7s cubic-bezier(0.55,0.085,0.68,0.53) 0.9s both}@-webkit-keyframes animate-svg-stroke-3{0%{stroke-dashoffset:1613.922607421875px;stroke-dasharray:1613.922607421875px}100%{stroke-dashoffset:0;stroke-dasharray:1613.922607421875px}}@keyframes animate-svg-stroke-3{0%{stroke-dashoffset:1613.922607421875px;stroke-dasharray:1613.922607421875px}100%{stroke-dashoffset:0;stroke-dasharray:1613.922607421875px}}@-webkit-keyframes animate-svg-fill-3{0%{fill:transparent}100%{fill:rgb(53,73,94)}}@keyframes animate-svg-fill-3{0%{fill:transparent}100%{fill:rgb(53,73,94)}}.svg-elem-3{-webkit-animation:animate-svg-stroke-3 2s cubic-bezier(0.55,0.085,0.68,0.53) 0.4s both,animate-svg-fill-3 0.7s cubic-bezier(0.55,0.085,0.68,0.53) 1s both;animation:animate-svg-stroke-3 2s cubic-bezier(0.55,0.085,0.68,0.53) 0.4s both,animate-svg-fill-3 0.7s cubic-bezier(0.55,0.085,0.68,0.53) 1s both}
    </style>
    <g id="SetBun-Logo-Candy" stroke="none" stroke-width="1" fill="none" fill-rule="evenodd">
        <path d="M174,292.311696 L174,292.311696 C174,299.448237 172.755591,305.689983 170.266773,311.036933 C167.799787,316.383884 164.415868,320.825126 160.115016,324.36066 C155.814164,327.918019 150.781949,330.580582 145.018371,332.348349 C139.232961,334.116116 133.032748,335 126.417732,335 L126.417732,335 C123.863419,335 121.05804,334.661724 118.001597,333.985171 C114.945154,333.308618 111.855964,332.468383 108.734026,331.464466 C105.612087,330.438724 102.599308,329.336598 99.6956869,328.158086 C96.792066,327.001399 94.2268371,325.899273 92,324.851707 L92,324.851707 L95.4384984,292.606323 C99.8703408,295.268886 104.782481,297.287633 110.17492,298.662563 C115.567359,300.059317 120.872471,300.757694 126.090256,300.757694 L126.090256,300.757694 C127.094515,300.757694 128.295261,300.714046 129.692492,300.626749 C131.111555,300.561276 132.454207,300.332121 133.720447,299.939284 C135.00852,299.546447 136.100106,298.957191 136.995208,298.171517 C137.868477,297.385842 138.305112,296.261891 138.305112,294.799664 L138.305112,294.799664 C138.305112,293.817571 137.999468,292.977336 137.388179,292.278959 C136.755059,291.558758 135.936368,290.980414 134.932109,290.543928 C133.949681,290.107443 132.836262,289.769166 131.591853,289.529099 C130.325612,289.289032 129.092119,289.114438 127.891374,289.005316 C126.690628,288.918019 125.57721,288.87437 124.551118,288.87437 C123.503195,288.87437 122.662673,288.87437 122.029553,288.87437 L122.029553,288.87437 C117.554047,288.87437 113.471512,288.088696 109.781949,286.517348 C106.114217,284.945999 102.959531,282.76357 100.317891,279.970062 C97.6762513,277.176553 95.6240682,273.870173 94.1613419,270.050923 C92.7204473,266.209849 92,262.052322 92,257.578344 L92,257.578344 C92,251.423895 93.2334931,245.90235 95.7004792,241.01371 C98.1892971,236.146894 101.507721,232.00028 105.655751,228.573867 C109.781949,225.169278 114.541267,222.550364 119.933706,220.717124 C125.304313,218.905708 130.86049,218 136.602236,218 L136.602236,218 C139.15655,218 141.787274,218.087297 144.494409,218.261891 C147.201544,218.436486 149.897764,218.76385 152.583067,219.243984 C155.268371,219.702294 157.888179,220.302462 160.442492,221.044488 C163.018637,221.764689 165.452875,222.670397 167.745208,223.761612 L167.745208,223.761612 L164.765176,255.548685 C161.206603,254.348349 157.484292,253.344432 153.598243,252.536933 C149.712194,251.729435 145.924388,251.325686 142.234824,251.325686 L142.234824,251.325686 C141.55804,251.325686 140.684771,251.336598 139.615016,251.358422 C138.545261,251.380246 137.420927,251.456631 136.242013,251.587577 C135.063099,251.718523 133.873269,251.914941 132.672524,252.176833 C131.471778,252.438724 130.402023,252.787913 129.463259,253.224398 C128.524494,253.660884 127.771299,254.25014 127.203674,254.992166 C126.636049,255.712367 126.374068,256.574426 126.417732,257.578344 L126.417732,257.578344 C126.461395,258.713206 126.887114,259.640739 127.694888,260.36094 C128.502662,261.059317 129.550586,261.604924 130.838658,261.997762 C132.126731,262.390599 133.534878,262.663402 135.063099,262.816172 C136.613152,262.968942 138.141374,263.05624 139.647764,263.078064 C141.154153,263.099888 142.5623,263.099888 143.872204,263.078064 C145.182109,263.05624 146.251864,263.099888 147.08147,263.20901 L147.08147,263.20901 C151.251331,263.470901 155.00639,264.354785 158.346645,265.86066 C161.686901,267.366536 164.514111,269.37437 166.828275,271.884163 C169.164271,274.393956 170.943557,277.383884 172.166134,280.853945 C173.388711,284.324007 174,288.143257 174,292.311696 Z M182.467749,222 L254,222 C253.696943,226.875218 253.415533,231.696266 253.15577,236.463146 C252.896007,241.208358 252.56048,246.018572 252.149188,250.89379 L252.149188,250.89379 L219.256692,252.616367 L218.477402,262.399304 L241.596314,262.399304 L239.907854,286.482879 L216.626591,287.230412 L215.847301,298.573418 L235.069767,298.573418 L248.739798,298.573418 C248.436741,304.272006 248.112037,309.927259 247.765687,315.539176 C247.440983,321.172761 247.148749,326.806346 246.888986,332.43993 L246.888986,332.43993 L180,334 L182.467749,222 Z M252.946849,222.16369 L338,222 L337.216401,255.16369 L313.969628,256.113095 L308.027335,330.264881 L275.083523,332 L275.246773,257.815476 L252,259.059524 L252.946849,222.16369 Z" id="Word-&quot;SET&quot;" stroke="#35495E" fill="#35495E" fill-rule="nonzero" class="svg-elem-1"></path>
        <path d="M408.5,218 C376.191511,218 350,244.191508 350,276.5 C349.988738,308.808492 376.191511,335 408.5,335 C440.808493,335 467,308.808492 467,276.5 C467,244.191508 440.797228,218 408.5,218 Z M414.919958,232 C426.148818,232 436.058625,237.762125 442,246.549654 C436.058625,243.073903 429.192786,241.076212 421.864715,241.076212 C403.037208,241.076212 387.1973,254.205543 382.586252,272 C382.214212,269.967667 382,267.877598 382,265.729792 C381.988733,247.103926 396.735067,232 414.919958,232 Z M443.114293,313.139722 C434.508715,321.704167 422.732072,327 409.722859,327 C383.368277,327 362,305.281389 362,278.494722 C362,265.5 367.042331,253.7125 375.222112,245 C371.782122,251.172778 369.81001,258.302222 369.81001,265.898611 C369.81001,282.890833 379.625747,297.536944 393.811504,304.324722 C391.940239,300.304444 390.864542,295.828611 390.864542,291.102222 C390.864542,273.939167 404.546066,260.033333 421.432271,260.033333 C438.318476,260.033333 452,273.950556 452,291.102222 C452,299.712222 448.56001,307.502222 442.991036,313.128333 C443.047062,313.128333 443.069472,313.139722 443.114293,313.139722 Z" id="Favicon" stroke="#41B883" fill="#41B883" fill-rule="nonzero" class="svg-elem-2"></path>
        <path d="M518.034582,218 C521.708934,218 525.415706,218.227337 529.154899,218.682011 C532.894092,219.158336 536.492795,219.937777 539.951009,221.020333 C543.409222,222.10289 546.64049,223.510214 549.644813,225.242304 C552.649135,226.974395 555.275216,229.107032 557.523055,231.640215 C559.770893,234.195048 561.521614,237.150428 562.775216,240.506354 C564.050432,243.86228 564.68804,247.737833 564.68804,252.133013 C564.68804,255.034265 564.266571,257.751483 563.423631,260.284665 C562.602305,262.817848 561.413545,265.102043 559.857349,267.137249 C558.322767,269.150805 556.442363,270.861244 554.216138,272.268568 C551.989914,273.697543 549.482709,274.747623 546.694524,275.418808 C550.066282,276.306505 553.12464,277.605573 555.869597,279.316012 C558.636167,281.026452 560.992075,283.094135 562.93732,285.519062 C564.860951,287.943989 566.352305,290.682858 567.411383,293.735668 C568.470461,296.788478 569,300.046974 569,303.511155 C569,307.819731 568.221902,311.522075 566.665706,314.618187 C565.087896,317.714299 562.980548,320.355738 560.34366,322.542502 C557.706772,324.707616 554.670029,326.472183 551.233429,327.836204 C547.79683,329.221877 544.219741,330.304434 540.502161,331.083875 C536.784582,331.841664 533.056196,332.350466 529.317003,332.61028 C525.556196,332.870093 522.054755,333 518.81268,333 C515.613833,333 512.29611,332.891744 508.85951,332.675233 C505.422911,332.437071 501.997118,332.036525 498.582133,331.473595 C495.188761,330.889014 491.838617,330.120399 488.5317,329.167749 C485.224784,328.215099 482.090778,327.013461 479.129683,325.562835 L479,225.599548 C481.87464,224.408736 484.943804,223.337005 488.207493,222.384355 C491.471182,221.431705 494.788905,220.630613 498.160663,219.981079 C501.554035,219.331545 504.925793,218.833569 508.275937,218.487151 C511.626081,218.162384 514.878963,218 518.034582,218 Z M518.746888,284 C517.219917,284 515.737206,284.164076 514.298755,284.492228 L514,302.343696 C514.79668,302.51871 515.571231,302.671848 516.323651,302.803109 C517.098202,302.93437 517.850622,303 518.580913,303 C519.709544,303 520.926694,302.879678 522.232365,302.639033 C523.560166,302.398388 524.810512,301.928037 525.983402,301.227979 C527.134163,300.506045 528.096819,299.554404 528.871369,298.373057 C529.62379,297.169833 530,295.572827 530,293.582038 C530,291.591249 529.62379,289.972366 528.871369,288.725389 C528.096819,287.456534 527.156293,286.472078 526.049793,285.772021 C524.943292,285.071963 523.726141,284.601612 522.39834,284.360967 C521.070539,284.120322 519.853389,284 518.746888,284 Z M521.630021,251 C520.547569,251 519.498943,251.153403 518.484144,251.460208 C517.469345,251.788927 516.477097,252.161476 515.5074,252.577855 L515,270 C516.24031,270 517.78506,269.901384 519.634249,269.704152 C521.460888,269.485006 523.219873,269.024798 524.911205,268.323529 C526.602537,267.622261 528.045807,266.570358 529.241015,265.16782 C530.413672,263.787197 531,261.89158 531,259.480969 C531,257.968858 530.684285,256.675894 530.052854,255.602076 C529.398872,254.528258 528.598309,253.651672 527.651163,252.972318 C526.704017,252.292964 525.689218,251.788927 524.606765,251.460208 C523.501762,251.153403 522.509514,251 521.630021,251 Z M666,244.806752 L666,244.806752 C666,248.653085 665.814432,252.879705 665.443295,257.486612 C665.093991,262.11525 664.493623,266.896003 663.642192,271.828871 C662.812593,276.761738 661.731932,281.759798 660.400207,286.82305 C659.068482,291.886302 657.4202,296.753977 655.45536,301.426077 C653.468689,306.098176 651.154544,310.476911 648.512927,314.562282 C645.871309,318.625922 642.847639,322.17889 639.441917,325.221187 C636.014363,328.263485 632.193841,330.653861 627.980352,332.392317 C623.74503,334.130772 619.051247,335 613.899,335 L613.899,335 C607.829829,335 602.568425,334.022119 598.114788,332.066356 C593.661151,330.132324 589.84063,327.513776 586.653223,324.21071 C583.465816,320.907645 580.856946,317.061312 578.826612,312.671711 C576.796277,308.282111 575.202574,303.642608 574.045502,298.753201 C572.910261,293.842064 572.113409,288.822274 571.654947,283.69383 C571.218316,278.587117 571,273.665114 571,268.927823 L571,268.927823 C571,261.669771 571.371136,254.422584 572.113409,247.186263 C572.83385,239.928211 573.870849,232.69189 575.224405,225.477299 L575.224405,225.477299 L611.835919,226.878929 C610.438699,235.027939 609.227048,243.220411 608.200965,251.456345 C607.196714,259.692278 606.694588,267.960807 606.694588,276.261932 L606.694588,276.261932 C606.694588,277.152891 606.727335,278.467598 606.79283,280.206054 C606.880156,281.944509 607.022061,283.889406 607.218545,286.040745 C607.436861,288.192084 607.742503,290.397749 608.135471,292.657742 C608.528438,294.917734 609.063312,296.98215 609.74009,298.85099 C610.416868,300.719829 611.235551,302.251843 612.196139,303.447031 C613.156728,304.64222 614.291968,305.239814 615.601861,305.239814 L615.601861,305.239814 C617.108239,305.239814 618.461795,304.522701 619.66253,303.088475 C620.863266,301.67598 621.922096,299.774544 622.839021,297.384168 C623.755946,294.993791 624.552798,292.233993 625.229576,289.104773 C625.906354,285.997284 626.48489,282.75941 626.965184,279.391153 C627.423647,276.001164 627.794783,272.622041 628.078594,269.253783 C628.362404,265.885526 628.602551,262.74544 628.799035,259.833527 C628.973687,256.921614 629.093761,254.346527 629.159255,252.108265 C629.202919,249.891735 629.22475,248.229336 629.22475,247.121071 L629.22475,247.121071 C629.22475,243.079162 629.159255,239.048118 629.028266,235.027939 C628.897277,231.007761 628.700793,226.998448 628.438814,223 L628.438814,223 L665.050327,223 C665.683442,230.149399 666,237.418316 666,244.806752 Z M741.479536,221.087638 L778,219.852583 L772.431277,325.189785 L731.896151,328.894951 L710.236408,272.504933 L706.836897,330 L672,330 L674.784362,219.852583 L713.474038,218 L740.249236,273.902496 L741.479536,221.087638 Z" id="Word-&quot;BUN&quot;" stroke="#35495E" fill="#35495E" fill-rule="nonzero" class="svg-elem-3"></path>
    </g>
</svg>